<svg height="1025" viewBox="0 0 1025 1025" width="1025" xmlns="http://www.w3.org/2000/svg"><path d="m143.2 1022.8c-47.6-6.4-84.3-27.5-111.9-64.3-7.3-9.8-16.2-25.6-21-37.5-2-5.1-6.1-19.4-7.5-26.5-.6-3-1.4-6.8-1.8-8.5-1.1-4.5-1.4-736.7-.2-744.5 1.9-13.5 2.6-17.2 4.5-24 9.5-34 28.1-61.7 57-85 5.4-4.4 19-12.6 27.9-16.9 16.5-8.1 31.3-12.4 50.5-14.9 7.3-.9 735.9-.9 743 0 12.8 1.8 20.4 3.5 32.5 7.8 57.1 19.8 98.6 70.9 106.3 131 .9 7 .9 735.6 0 743-5.6 46-31.2 87.8-69.6 113.9-16.7 11.3-42.5 21.6-61.7 24.6-2.7.5-5.7 1.1-6.5 1.4-1.7.6-736.9 1-741.5.4zm450.327419-178.775c102.2 0 168.7-71.4 168.7-189.7 0-160.3-155.4-449.4-303.8-449.4-65.1 0-142.8 52.5-142.8 153.3 0 172.2 185.5 367.5 275.1 367.5 21 0 35.7-10.5 35.7-18.9 0-5.6-7.7-9.8-21-18.9-59.5-40.6-219.8-203-219.8-381.5 0-43.4 25.9-70 53.2-70 121.8 0 273 291.2 273 459.9 0 71.4-38.5 116.9-101.5 116.9-125.3 0-301-126.7-301-335.3 0-4.9-3.5-7.7-7-7.7-12.6 0-46.9 32.9-46.9 84 0 171.5 209.3 289.8 338.1 289.8z" transform="matrix(1 0 0 -1 .3 1024.5)"/></svg>